<svg width="31" height="31" viewBox="0 0 31 31" fill="none" xmlns="http://www.w3.org/2000/svg">
<mask id="mask0_50184_70" style="mask-type:alpha" maskUnits="userSpaceOnUse" x="0" y="0" width="31" height="31">
<rect width="31" height="31" fill="#D9D9D9"/>
</mask>
<g mask="url(#mask0_50184_70)">
<path d="M5.45833 24.5416H7.26667L18.4073 13.401L16.599 11.5926L5.45833 22.7333V24.5416ZM23.9292 11.528L18.4396 6.10304L20.2479 4.29471C20.7431 3.79957 21.3514 3.552 22.073 3.552C22.7938 3.552 23.4017 3.79957 23.8969 4.29471L25.7052 6.10304C26.2003 6.59818 26.4587 7.19579 26.4802 7.89588C26.5017 8.5951 26.2649 9.19228 25.7698 9.68742L23.9292 11.528ZM22.0562 13.4333L8.36458 27.1249H2.875V21.6353L16.5667 7.94367L22.0562 13.4333Z" fill="black"/>
</g>
</svg>
